<svg xmlns="http://www.w3.org/2000/svg" viewBox="0 0 32 32" fill="none">
  <!-- Community Clarity AI Favicon -->
  <!-- Main building/government structure -->
  <rect x="4" y="24" width="24" height="2" fill="#2563eb" opacity="0.8"/>
  <rect x="4" y="20" width="24" height="2" fill="#2563eb" opacity="0.8"/>
  <rect x="4" y="16" width="24" height="2" fill="#2563eb" opacity="0.8"/>
  <rect x="4" y="12" width="24" height="2" fill="#2563eb" opacity="0.8"/>
  <rect x="4" y="8" width="24" height="2" fill="#2563eb" opacity="0.8"/>
  <rect x="4" y="4" width="24" height="2" fill="#2563eb" opacity="0.8"/>
  
  <!-- AI/Technology elements - circuit pattern -->
  <rect x="6" y="6" width="2" height="2" fill="#1d4ed8" opacity="0.6"/>
  <rect x="10" y="6" width="2" height="2" fill="#1d4ed8" opacity="0.6"/>
  <rect x="14" y="6" width="2" height="2" fill="#1d4ed8" opacity="0.6"/>
  <rect x="18" y="6" width="2" height="2" fill="#1d4ed8" opacity="0.6"/>
  <rect x="22" y="6" width="2" height="2" fill="#1d4ed8" opacity="0.6"/>
  
  <!-- Community/People representation -->
  <circle cx="8" cy="14" r="1" fill="#1e40af" opacity="0.9"/>
  <circle cx="16" cy="14" r="1" fill="#1e40af" opacity="0.9"/>
  <circle cx="24" cy="14" r="1" fill="#1e40af" opacity="0.9"/>
  <circle cx="12" cy="18" r="1" fill="#1e40af" opacity="0.9"/>
  <circle cx="20" cy="18" r="1" fill="#1e40af" opacity="0.9"/>
  
  <!-- Clarity/AI sparkle effect -->
  <path d="M28 8l1-1 1 1-1 1-1-1z" fill="#3b82f6" opacity="0.7"/>
  <path d="M2 8l1-1 1 1-1 1-1-1z" fill="#3b82f6" opacity="0.7"/>
</svg>
