<svg xmlns="http://www.w3.org/2000/svg" viewBox="0 0 16 16" fill="none">
  <!-- Community Clarity AI Favicon 16x16 -->
  <!-- Main building/government structure -->
  <rect x="2" y="12" width="12" height="1" fill="#2563eb" opacity="0.8"/>
  <rect x="2" y="10" width="12" height="1" fill="#2563eb" opacity="0.8"/>
  <rect x="2" y="8" width="12" height="1" fill="#2563eb" opacity="0.8"/>
  <rect x="2" y="6" width="12" height="1" fill="#2563eb" opacity="0.8"/>
  <rect x="2" y="4" width="12" height="1" fill="#2563eb" opacity="0.8"/>
  <rect x="2" y="2" width="12" height="1" fill="#2563eb" opacity="0.8"/>
  
  <!-- AI/Technology elements -->
  <rect x="3" y="3" width="1" height="1" fill="#1d4ed8" opacity="0.6"/>
  <rect x="5" y="3" width="1" height="1" fill="#1d4ed8" opacity="0.6"/>
  <rect x="7" y="3" width="1" height="1" fill="#1d4ed8" opacity="0.6"/>
  <rect x="9" y="3" width="1" height="1" fill="#1d4ed8" opacity="0.6"/>
  <rect x="11" y="3" width="1" height="1" fill="#1d4ed8" opacity="0.6"/>
  <rect x="13" y="3" width="1" height="1" fill="#1d4ed8" opacity="0.6"/>
  
  <!-- Community/People representation -->
  <circle cx="4" cy="7" r="0.5" fill="#1e40af" opacity="0.9"/>
  <circle cx="8" cy="7" r="0.5" fill="#1e40af" opacity="0.9"/>
  <circle cx="12" cy="7" r="0.5" fill="#1e40af" opacity="0.9"/>
  <circle cx="6" cy="9" r="0.5" fill="#1e40af" opacity="0.9"/>
  <circle cx="10" cy="9" r="0.5" fill="#1e40af" opacity="0.9"/>
  
  <!-- Clarity/AI sparkle effect -->
  <path d="M14 4l1-1 1 1-1 1-1-1z" fill="#3b82f6" opacity="0.7"/>
  <path d="M1 4l1-1 1 1-1 1-1-1z" fill="#3b82f6" opacity="0.7"/>
</svg>
